<svg width="20" height="20" viewBox="0 0 20 20" fill="none" xmlns="http://www.w3.org/2000/svg">
<path d="M3.58253 18.5625C3.48503 19.1175 4.03253 19.5512 4.51503 19.3037L10.0025 16.4837L15.4888 19.3037C15.9713 19.5512 16.5188 19.1175 16.4213 18.5637L15.3838 12.6512L19.7863 8.45625C20.1988 8.06375 19.9863 7.34625 19.4338 7.26875L13.3113 6.39875L10.5813 0.99C10.5293 0.880361 10.4472 0.787729 10.3447 0.722866C10.2421 0.658002 10.1233 0.62357 10.0019 0.62357C9.88055 0.62357 9.7617 0.658002 9.65914 0.722866C9.55658 0.787729 9.47453 0.880361 9.42253 0.99L6.69253 6.4L0.570026 7.27C0.0187758 7.3475 -0.194974 8.065 0.216276 8.4575L4.62003 12.6525L3.58253 18.565V18.5625ZM9.71378 15.1037L5.10628 17.4712L5.97378 12.525C5.9941 12.4111 5.98615 12.294 5.95062 12.184C5.91509 12.0739 5.85308 11.9742 5.77003 11.8937L2.13753 8.43125L7.20253 7.71125C7.30741 7.69541 7.40689 7.65439 7.49244 7.59169C7.578 7.52899 7.64708 7.44649 7.69378 7.35125L10 2.77875L12.3088 7.35125C12.3555 7.44649 12.4246 7.52899 12.5101 7.59169C12.5957 7.65439 12.6951 7.69541 12.8 7.71125L17.865 8.43L14.2325 11.8925C14.1493 11.9731 14.0871 12.073 14.0516 12.1833C14.0161 12.2936 14.0082 12.4109 14.0288 12.525L14.8963 17.4712L10.2888 15.1037C10.1997 15.0578 10.1009 15.0338 10.0007 15.0338C9.90041 15.0338 9.80162 15.0578 9.71253 15.1037H9.71378Z" fill="#FFE871"/>
</svg>
